<svg width="24" height="24" viewBox="0 0 23 23" fill="none" xmlns="http://www.w3.org/2000/svg">
  <path d="M19.0261 6.89406C19.5628 6.36497 19.5659 5.49995 19.033 4.96701C18.5 4.43408 17.635 4.43719 17.1059 4.97394L12 10.1539L6.89406 4.97394C6.36497 4.43719 5.49995 4.43408 4.96701 4.96701C4.43408 5.49995 4.43719 6.36497 4.97394 6.89406L10.1539 12L4.97394 17.1059C4.43719 17.635 4.43408 18.5 4.96701 19.033C5.49995 19.5659 6.36497 19.5628 6.89406 19.0261L12 13.8461L17.1059 19.0261C17.635 19.5628 18.5 19.5659 19.033 19.033C19.5659 18.5 19.5628 17.635 19.0261 17.1059L13.8461 12L19.0261 6.89406Z" fill="currentColor"/>
</svg>
